# xmcd CD database file
#
# Track frame offsets:
#	150
#	23030
#	41507
#	65450
#	84755
#	109713
#	128775
#	146473
#	166815
#	189990
#	211065
#	228619
#	247455
#	267932
#	288599
#	308157
#
# Disc length: 4381 seconds
#
# Revision: 0
# Processed by: cddbd v1.5.1PL2 Copyright (c) Steve Scherf et al.
# Submitted via: CDex 1.51
#
DISCID=dd111b10
DTITLE=ケニー・G - デュエット〜ミーツ・エイジア
DYEAR=2005
DGENRE=Jazz
TTITLE0=アイ・ドゥ・イット・フォー・ユー(Feat. リアン・ライムス)
TTITLE1=アット・ラスト(Feat. アルトゥーロ・サンドヴァール)
TTITLE2=アイ・ビリーヴ・アイ・キャン・フライ(Feat. ヨランダ・アダムス)
TTITLE3=ケアレス・ウィスパー(Feat. ブライアン・マックナイト)
TTITLE4=ビューティフル(Feat. チャカ・カーン)
TTITLE5=ピック・アップ・ザ・ピーセズ(Feat. デヴィッド・サンボーン)
TTITLE6=あまねく愛で(Feat. ダリル・ホール)
TTITLE7=ミスティ(Feat. グラディス・ナイト)
TTITLE8=ドント・ノウ・ホワイ(Feat. デヴィッド・ベノワ)
TTITLE9=ザ・ウェイ・ユー・ムーヴ(Feat. アース・ウインド&ファイアー)
TTITLE10=悲しみのバラード(Feat. リチャード・マークス)
TTITLE11=アルフィー(Feat. バート・バカラック)
TTITLE12=ザ・ミュージック・ザット・メイクス・ミー・ダンス(Feat. バーブラ・ストライサンド)
TTITLE13=アイ・ニード・ザ・ボス・オブ・ユー(Feat. タタ・ヤン)
TTITLE14=ザ・ワン・アンド・オンリー・ユー(Feat. ワン・リーホン)
TTITLE15=ミスティ・ムーン(Feat. イム・ヒョンジュ)
EXTD=YEAR: 2005
EXTT0=
EXTT1=
EXTT2=
EXTT3=
EXTT4=
EXTT5=
EXTT6=
EXTT7=
EXTT8=
EXTT9=
EXTT10=
EXTT11=
EXTT12=
EXTT13=
EXTT14=
EXTT15=
PLAYORDER=
